<svg xmlns="http://www.w3.org/2000/svg" viewBox="0 0 32 32" width="32" height="32">
  <rect width="32" height="32" rx="6" fill="#8B5CF6"/>
  <g fill="#FFFFFF">
    <rect x="8"  y="6"  width="4" height="4"/>
    <rect x="12" y="6"  width="4" height="4"/>
    <rect x="16" y="6"  width="4" height="4"/>
    <rect x="20" y="6"  width="4" height="4"/>
    <rect x="8"  y="10" width="4" height="4"/>
    <rect x="8"  y="14" width="4" height="4"/>
    <rect x="12" y="14" width="4" height="4"/>
    <rect x="16" y="14" width="4" height="4"/>
    <rect x="20" y="14" width="4" height="4"/>
    <rect x="20" y="18" width="4" height="4"/>
    <rect x="8"  y="22" width="4" height="4"/>
    <rect x="12" y="22" width="4" height="4"/>
    <rect x="16" y="22" width="4" height="4"/>
    <rect x="20" y="22" width="4" height="4"/>
  </g>
</svg>
